<svg width="277" height="192" viewBox="0 0 277 192" fill="none" xmlns="http://www.w3.org/2000/svg">
<path d="M139.024 120.89H117.347V148.82H77.1195V120.89H0V94.0024L65.4474 2.91804H108.176L48.7729 88.1664H78.3701V63.3631H117.347V88.1664H139.024V120.89Z" fill="white"/>
<path d="M211.807 151.738C199.301 151.738 188.185 148.75 178.458 142.775C168.731 136.8 161.088 128.116 155.53 116.721C150.111 105.188 147.402 91.5707 147.402 75.8689C147.402 60.1671 150.111 46.6191 155.53 35.2249C161.088 23.6917 168.731 14.9376 178.458 8.96255C188.185 2.98752 199.301 0 211.807 0C224.174 0 235.22 2.98752 244.947 8.96255C254.674 14.9376 262.247 23.6917 267.666 35.2249C273.224 46.6191 276.004 60.1671 276.004 75.8689C276.004 91.5707 273.224 105.188 267.666 116.721C262.247 128.116 254.674 136.8 244.947 142.775C235.22 148.75 224.174 151.738 211.807 151.738ZM211.807 117.972C218.754 117.972 224.243 114.637 228.273 107.967C232.441 101.159 234.526 90.4591 234.526 75.8689C234.526 61.2787 232.441 50.6488 228.273 43.979C224.243 37.1702 218.754 33.7658 211.807 33.7658C204.72 33.7658 199.092 37.1702 194.924 43.979C190.894 50.6488 188.879 61.2787 188.879 75.8689C188.879 90.4591 190.894 101.159 194.924 107.967C199.092 114.637 204.72 117.972 211.807 117.972Z" fill="white"/>
<path d="M167.954 180.367V191.597H159.095V180.233L147.149 160.278H156.5L163.927 172.716L171.354 160.278H179.945L167.954 180.367Z" fill="white"/>
<path d="M203.917 179.517C203.917 179.577 203.872 180.278 203.783 181.62H186.154C186.512 182.873 187.198 183.842 188.212 184.528C189.256 185.184 190.554 185.512 192.105 185.512C193.268 185.512 194.267 185.348 195.103 185.02C195.968 184.692 196.833 184.155 197.698 183.41L202.172 188.063C199.815 190.688 196.37 192 191.837 192C189.003 192 186.512 191.463 184.365 190.389C182.217 189.315 180.547 187.824 179.354 185.915C178.19 184.006 177.609 181.844 177.609 179.428C177.609 177.041 178.175 174.909 179.309 173.029C180.472 171.12 182.068 169.629 184.096 168.555C186.124 167.482 188.406 166.945 190.942 166.945C193.358 166.945 195.55 167.452 197.519 168.466C199.487 169.45 201.038 170.897 202.172 172.806C203.335 174.685 203.917 176.922 203.917 179.517ZM190.986 172.985C189.674 172.985 188.57 173.358 187.676 174.103C186.811 174.849 186.259 175.863 186.02 177.146H195.953C195.714 175.863 195.147 174.849 194.253 174.103C193.388 173.358 192.299 172.985 190.986 172.985Z" fill="white"/>
<path d="M217.516 166.945C221.543 166.945 224.615 167.869 226.733 169.719C228.851 171.538 229.91 174.342 229.91 178.13V191.597H221.99V188.465C220.767 190.822 218.381 192 214.832 192C212.953 192 211.327 191.672 209.955 191.016C208.583 190.359 207.539 189.48 206.823 188.376C206.137 187.242 205.794 185.96 205.794 184.528C205.794 182.231 206.674 180.457 208.434 179.204C210.193 177.921 212.908 177.28 216.577 177.28H221.409C221.26 174.715 219.544 173.432 216.263 173.432C215.1 173.432 213.922 173.626 212.729 174.014C211.536 174.372 210.522 174.879 209.686 175.535L206.823 169.763C208.165 168.868 209.791 168.182 211.7 167.705C213.639 167.198 215.577 166.945 217.516 166.945ZM217.203 186.631C218.187 186.631 219.052 186.392 219.798 185.915C220.544 185.438 221.081 184.737 221.409 183.812V181.709H217.74C215.264 181.709 214.026 182.53 214.026 184.17C214.026 184.916 214.31 185.512 214.876 185.96C215.443 186.407 216.219 186.631 217.203 186.631Z" fill="white"/>
<path d="M243.374 170.255C244.239 169.152 245.357 168.332 246.729 167.795C248.131 167.228 249.727 166.945 251.517 166.945V174.595C250.741 174.506 250.1 174.461 249.593 174.461C247.773 174.461 246.342 174.953 245.298 175.938C244.284 176.922 243.776 178.428 243.776 180.457V191.597H235.276V167.347H243.374V170.255Z" fill="white"/>
<path d="M263.883 192C261.854 192 259.856 191.776 257.887 191.329C255.919 190.852 254.338 190.24 253.145 189.494L255.695 183.678C256.798 184.364 258.111 184.916 259.632 185.333C261.153 185.721 262.66 185.915 264.151 185.915C265.523 185.915 266.493 185.781 267.059 185.512C267.656 185.214 267.954 184.797 267.954 184.26C267.954 183.723 267.596 183.35 266.88 183.141C266.194 182.902 265.091 182.679 263.569 182.47C261.631 182.231 259.975 181.918 258.603 181.53C257.261 181.143 256.098 180.427 255.113 179.383C254.129 178.339 253.637 176.877 253.637 174.998C253.637 173.447 254.099 172.075 255.024 170.882C255.948 169.659 257.291 168.704 259.051 168.018C260.84 167.303 262.973 166.945 265.449 166.945C267.208 166.945 268.953 167.124 270.683 167.481C272.413 167.839 273.86 168.347 275.023 169.003L272.473 174.774C270.325 173.581 267.999 172.985 265.493 172.985C264.151 172.985 263.167 173.149 262.54 173.477C261.914 173.775 261.601 174.178 261.601 174.685C261.601 175.252 261.944 175.654 262.63 175.893C263.316 176.102 264.449 176.325 266.03 176.564C268.029 176.862 269.684 177.205 270.997 177.593C272.309 177.981 273.442 178.697 274.397 179.741C275.381 180.755 275.873 182.187 275.873 184.036C275.873 185.557 275.411 186.929 274.486 188.152C273.562 189.345 272.19 190.285 270.37 190.971C268.581 191.657 266.418 192 263.883 192Z" fill="white"/>
</svg>
