<svg width="1173" height="410" viewBox="0 0 1173 410" fill="none" xmlns="http://www.w3.org/2000/svg">
<path d="M482.539 340V310.182H488.609V334.935H503.703V340H482.539ZM513.746 340V309.936H519.816V340H513.746ZM531.418 340V309.936H540.503L545.958 330.443L551.351 309.936H560.457V340H554.817V316.334L548.849 340H543.005L537.058 316.334V340H531.418ZM572.182 340V309.936H578.252V340H572.182ZM596.703 340V315.021H587.782V309.936H611.674V315.021H602.774V340H596.703ZM621.491 340V309.936H643.783V315.021H627.562V321.687H642.656V326.752H627.562V334.935H644.358V340H621.491ZM655.365 309.936H666.459C668.961 309.936 670.869 310.127 672.181 310.51C673.945 311.029 675.455 311.952 676.713 313.278C677.971 314.604 678.928 316.231 679.584 318.159C680.241 320.073 680.569 322.438 680.569 325.255C680.569 327.729 680.261 329.862 679.646 331.653C678.894 333.841 677.821 335.611 676.426 336.965C675.373 337.99 673.952 338.79 672.161 339.364C670.821 339.788 669.03 340 666.787 340H655.365V309.936ZM661.435 315.021V334.935H665.967C667.662 334.935 668.886 334.839 669.638 334.647C670.622 334.401 671.436 333.984 672.078 333.396C672.735 332.809 673.268 331.845 673.678 330.505C674.088 329.151 674.293 327.312 674.293 324.988C674.293 322.664 674.088 320.88 673.678 319.636C673.268 318.392 672.694 317.421 671.955 316.724C671.217 316.026 670.281 315.555 669.146 315.309C668.298 315.117 666.637 315.021 664.162 315.021H661.435Z" fill="black"/>
<path fill-rule="evenodd" clip-rule="evenodd" d="M1118.7 102.968C1021.1 60.5799 848.568 37.7782 653.526 47.6934C354.729 62.8831 116.264 149.104 120.898 240.274C125.533 331.444 371.513 393.038 670.31 377.848C844.376 368.999 997.968 336.044 1094.95 292.047C995.652 351.726 817.491 397.057 612.473 407.48C294.37 423.651 32.0688 349.658 26.6067 242.211C21.1445 134.765 274.59 34.5534 592.693 18.3823C822.304 6.7097 1022.84 42.0143 1118.7 102.968Z" fill="#E5322C"/>
<path fill-rule="evenodd" clip-rule="evenodd" d="M1118.7 102.968C1021.1 60.5799 848.568 37.7782 653.526 47.6934C354.729 62.8831 116.264 149.104 120.898 240.274C125.533 331.444 371.513 393.038 670.31 377.848C844.376 368.999 997.968 336.044 1094.95 292.047C995.652 351.726 817.491 397.057 612.473 407.48C294.37 423.651 32.0688 349.658 26.6067 242.211C21.1445 134.765 274.59 34.5534 592.693 18.3823C822.304 6.7097 1022.84 42.0143 1118.7 102.968Z" fill="url(#paint0_angular)"/>
<path fill-rule="evenodd" clip-rule="evenodd" d="M1086.08 84.2219C1088.15 85.0743 1090.18 85.935 1092.18 86.804C996.322 25.85 795.784 -9.45461 566.172 2.21798C248.07 18.3891 -5.37551 118.601 0.0866556 226.047C1.59437 255.705 22.6711 282.815 59.0887 306.182C29.1488 284.499 11.9627 259.886 10.6067 233.211C5.14451 125.765 258.59 25.5534 576.692 9.38222C793.774 -1.65338 984.868 29.3009 1086.08 84.2219ZM141.857 287.289C221.772 346.08 422.09 380.653 654.31 368.848C772.635 362.833 881.498 345.678 969.551 321.489C1007.77 307.661 1041.09 292.316 1068.43 275.883C971.448 319.88 817.856 352.835 643.79 361.684C421.168 373.001 227.865 341.694 141.857 287.289Z" fill="black"/>
<path fill-rule="evenodd" clip-rule="evenodd" d="M529.189 112C530.243 112 531.233 112.016 532.151 112.048H614.651L627.698 112.048L619.526 142.616H614.651H528.151C499.151 142.616 493.151 156.647 490.651 171.179C488.774 182.088 503.477 184.731 512.459 184.74C513.016 184.74 513.552 184.729 514.059 184.71H514.151H563.059C563.64 184.684 564.358 184.669 565.187 184.669C569.808 184.666 577.978 185.161 585.151 187.215C595.651 190.222 609.651 198.24 606.651 220.79C603.651 243.34 596.651 255.868 580.651 271.402C568.93 282.782 544.856 285.506 531.538 285.5C530.277 285.501 529.11 285.477 528.059 285.433H463.454H428L436.071 255.245L436 255.167L436.081 254.865H436.172H535.559C558.559 254.865 565.059 240.333 565.559 226.803C565.919 217.066 553.896 214.709 546.019 214.699C545.174 214.7 544.378 214.728 543.651 214.776H543.559H496.651H496.559C454.61 214.776 451.719 195.67 450.221 185.769C450.166 185.403 450.113 185.049 450.059 184.71C448.559 175.188 451.559 152.638 470.059 131.592C483.95 115.789 513.608 111.993 529.189 112Z" fill="black"/>
<path d="M309.211 107.048L307.529 113.339L299.356 143.907L298.365 147.616H294.526H203.151C189.42 147.616 182.14 150.929 177.962 155.021C173.686 159.207 171.782 165.031 170.579 172.027C170.322 173.52 170.639 174.377 171.092 175.02C171.646 175.807 172.715 176.68 174.511 177.477C178.162 179.097 183.284 179.736 187.459 179.74C187.954 179.74 188.425 179.73 188.867 179.713L188.963 179.71H189.059H237.954C238.597 179.683 239.349 179.669 240.187 179.669M309.211 107.048L240.191 179.669C240.189 179.669 240.188 179.669 240.187 179.669M309.211 107.048H302.698M309.211 107.048H302.698M240.187 179.669C245.04 179.666 253.727 180.175 261.527 182.408C267.252 184.048 274.434 187.18 279.767 193.428C285.251 199.854 288.267 208.972 286.607 221.449C285.054 233.122 282.426 242.493 277.957 251.043C273.498 259.576 267.35 267.013 259.134 274.99C252.298 281.627 242.283 285.417 232.813 287.594C223.219 289.799 213.484 290.503 206.538 290.5L240.187 179.669ZM302.698 107.048H207.236H302.698ZM218.984 219.765C219.596 219.724 220.282 219.7 221.02 219.699L204.191 107C204.19 107 204.189 107 204.189 107C196.06 106.996 184.311 107.978 172.717 111.032C161.23 114.058 149.21 119.296 141.304 128.291C121.885 150.382 118.374 174.408 120.12 185.488C120.171 185.809 120.222 186.147 120.278 186.517C120.288 186.584 120.298 186.653 120.309 186.722C121.061 191.702 122.371 200.372 129.726 207.561C137.196 214.861 149.932 219.776 171.559 219.776H218.651H218.818L218.984 219.765Z" fill="black" stroke="white" stroke-width="10"/>
<path fill-rule="evenodd" clip-rule="evenodd" d="M416 284.5L423.954 254.5H362C322.4 254.5 324.833 225.833 331 211.5H435.355L443.308 181.5H339C342.5 168 357.2 141 388 141H454.046L462 111H407C394 111 359 111 333 130.5C307 150 293.5 192.5 292 198.5C291.881 198.976 291.721 199.567 291.532 200.263L291.532 200.263C289.34 208.341 283.255 230.764 292 257C299.6 279.8 333 284.5 358 284.5H416Z" fill="black"/>
<path d="M647.64 129.882H669.672C674.033 129.882 677.279 130.07 679.41 130.446C681.565 130.797 683.483 131.549 685.162 132.702C686.867 133.855 688.283 135.396 689.411 137.326C690.539 139.231 691.103 141.374 691.103 143.755C691.103 146.337 690.401 148.706 688.997 150.861C687.618 153.017 685.739 154.634 683.357 155.711C686.716 156.689 689.298 158.356 691.103 160.712C692.907 163.068 693.81 165.838 693.81 169.021C693.81 171.528 693.221 173.971 692.042 176.353C690.889 178.709 689.298 180.601 687.268 182.03C685.262 183.433 682.781 184.298 679.823 184.624C677.968 184.825 673.494 184.95 666.401 185H647.64V129.882ZM658.769 139.056V151.801H666.062C670.399 151.801 673.093 151.739 674.146 151.613C676.051 151.388 677.542 150.736 678.62 149.658C679.723 148.555 680.274 147.114 680.274 145.334C680.274 143.63 679.798 142.251 678.846 141.199C677.918 140.121 676.527 139.469 674.672 139.244C673.569 139.118 670.399 139.056 665.16 139.056H658.769ZM658.769 160.975V175.713H669.07C673.081 175.713 675.625 175.601 676.703 175.375C678.357 175.074 679.698 174.347 680.726 173.194C681.778 172.016 682.305 170.45 682.305 168.495C682.305 166.84 681.904 165.437 681.102 164.284C680.299 163.131 679.134 162.291 677.605 161.765C676.101 161.238 672.818 160.975 667.754 160.975H658.769ZM703.171 129.882H714.3V159.734C714.3 164.472 714.438 167.542 714.714 168.946C715.19 171.202 716.318 173.019 718.098 174.397C719.902 175.751 722.359 176.428 725.467 176.428C728.625 176.428 731.006 175.789 732.61 174.51C734.215 173.207 735.18 171.615 735.505 169.735C735.831 167.855 735.994 164.735 735.994 160.374V129.882H747.123V158.832C747.123 165.449 746.822 170.124 746.221 172.856C745.619 175.588 744.504 177.894 742.875 179.774C741.27 181.654 739.115 183.158 736.408 184.286C733.701 185.389 730.167 185.94 725.805 185.94C720.542 185.94 716.544 185.338 713.812 184.135C711.104 182.907 708.961 181.328 707.382 179.398C705.803 177.443 704.763 175.4 704.262 173.27C703.535 170.111 703.171 165.449 703.171 159.283V129.882ZM757.013 185V129.882H768.142V185H757.013ZM778.313 185V130.333H789.441V175.713H817.113V185H778.313ZM824.276 129.882H844.617C849.204 129.882 852.7 130.233 855.107 130.935C858.34 131.887 861.11 133.579 863.416 136.01C865.722 138.442 867.476 141.424 868.679 144.958C869.882 148.468 870.484 152.804 870.484 157.967C870.484 162.504 869.92 166.414 868.792 169.698C867.413 173.708 865.446 176.954 862.889 179.436C860.959 181.315 858.352 182.782 855.069 183.834C852.613 184.611 849.329 185 845.218 185H824.276V129.882ZM835.405 139.206V175.713H843.714C846.823 175.713 849.066 175.538 850.444 175.187C852.249 174.736 853.74 173.971 854.919 172.894C856.122 171.816 857.099 170.049 857.851 167.592C858.603 165.111 858.979 161.74 858.979 157.479C858.979 153.217 858.603 149.946 857.851 147.666C857.099 145.385 856.046 143.605 854.693 142.327C853.339 141.048 851.622 140.184 849.542 139.732C847.988 139.382 844.943 139.206 840.406 139.206H835.405ZM878.08 185V129.882H889.209V185H878.08ZM899.192 185V129.882H910.02L932.579 166.69V129.882H942.918V185H931.752L909.531 149.057V185H899.192ZM978.825 164.735V155.448H1002.81V177.405C1000.48 179.661 997.098 181.654 992.661 183.383C988.25 185.088 983.776 185.94 979.239 185.94C973.474 185.94 968.448 184.737 964.162 182.331C959.876 179.899 956.655 176.44 954.5 171.954C952.344 167.442 951.266 162.542 951.266 157.253C951.266 151.513 952.469 146.412 954.876 141.951C957.282 137.489 960.804 134.068 965.441 131.687C968.975 129.857 973.374 128.942 978.637 128.942C985.48 128.942 990.819 130.383 994.654 133.266C998.514 136.123 1001 140.083 1002.1 145.146L991.045 147.214C990.268 144.507 988.801 142.377 986.646 140.823C984.515 139.244 981.846 138.454 978.637 138.454C973.775 138.454 969.902 139.996 967.02 143.079C964.162 146.162 962.734 150.736 962.734 156.802C962.734 163.344 964.187 168.257 967.095 171.54C970.002 174.799 973.812 176.428 978.525 176.428C980.856 176.428 983.187 175.977 985.518 175.074C987.874 174.147 989.892 173.031 991.571 171.728V164.735H978.825ZM644.782 249.066L655.61 248.013C656.262 251.648 657.578 254.317 659.558 256.021C661.563 257.726 664.258 258.578 667.642 258.578C671.226 258.578 673.92 257.826 675.725 256.322C677.555 254.793 678.47 253.014 678.47 250.983C678.47 249.68 678.081 248.577 677.304 247.675C676.552 246.747 675.224 245.945 673.319 245.269C672.015 244.817 669.045 244.015 664.408 242.862C658.443 241.383 654.257 239.566 651.851 237.411C648.467 234.378 646.775 230.681 646.775 226.319C646.775 223.512 647.564 220.893 649.144 218.461C650.748 216.005 653.041 214.138 656.024 212.859C659.032 211.581 662.654 210.942 666.89 210.942C673.808 210.942 679.009 212.458 682.493 215.491C686.002 218.524 687.844 222.572 688.02 227.635L676.891 228.124C676.414 225.292 675.387 223.261 673.808 222.033C672.254 220.78 669.91 220.153 666.777 220.153C663.543 220.153 661.012 220.818 659.182 222.146C658.004 222.998 657.415 224.139 657.415 225.567C657.415 226.871 657.966 227.986 659.069 228.914C660.473 230.092 663.882 231.32 669.296 232.598C674.71 233.876 678.708 235.205 681.29 236.583C683.896 237.937 685.927 239.804 687.38 242.186C688.859 244.542 689.599 247.462 689.599 250.946C689.599 254.104 688.721 257.062 686.967 259.819C685.212 262.576 682.731 264.631 679.522 265.985C676.314 267.313 672.316 267.978 667.529 267.978C660.561 267.978 655.209 266.373 651.475 263.165C647.74 259.932 645.509 255.232 644.782 249.066ZM698.96 267V211.882H739.829V221.206H710.089V233.425H737.761V242.712H710.089V257.713H740.882V267H698.96ZM748.816 267V211.882H772.24C778.13 211.882 782.404 212.383 785.061 213.386C787.743 214.363 789.886 216.118 791.49 218.649C793.094 221.181 793.896 224.076 793.896 227.334C793.896 231.47 792.68 234.892 790.249 237.599C787.818 240.281 784.183 241.972 779.346 242.674C781.752 244.078 783.732 245.619 785.286 247.299C786.865 248.978 788.983 251.961 791.64 256.247L798.37 267H785.061L777.015 255.006C774.157 250.72 772.202 248.026 771.149 246.923C770.097 245.795 768.981 245.03 767.803 244.629C766.625 244.203 764.758 243.99 762.201 243.99H759.945V267H748.816ZM759.945 235.192H768.179C773.518 235.192 776.852 234.967 778.18 234.516C779.509 234.064 780.549 233.287 781.301 232.185C782.053 231.082 782.429 229.703 782.429 228.049C782.429 226.194 781.927 224.703 780.925 223.575C779.947 222.422 778.556 221.695 776.752 221.394C775.849 221.269 773.142 221.206 768.63 221.206H759.945V235.192ZM816.175 267L796.474 211.882H808.543L822.491 252.675L835.989 211.882H847.795L828.056 267H816.175ZM852.363 267V211.882H863.492V267H852.363ZM908.629 246.735L919.42 250.156C917.765 256.172 915.008 260.646 911.148 263.579C907.313 266.486 902.438 267.94 896.523 267.94C889.204 267.94 883.188 265.446 878.476 260.458C873.763 255.445 871.407 248.602 871.407 239.93C871.407 230.756 873.776 223.637 878.513 218.574C883.251 213.486 889.479 210.942 897.199 210.942C903.942 210.942 909.419 212.935 913.63 216.92C916.136 219.276 918.016 222.66 919.269 227.071L908.253 229.703C907.601 226.846 906.235 224.59 904.155 222.936C902.1 221.281 899.593 220.454 896.635 220.454C892.55 220.454 889.229 221.92 886.672 224.853C884.14 227.786 882.875 232.535 882.875 239.103C882.875 246.071 884.128 251.034 886.634 253.991C889.141 256.949 892.399 258.428 896.41 258.428C899.367 258.428 901.912 257.488 904.042 255.608C906.173 253.728 907.702 250.77 908.629 246.735ZM927.467 267V211.882H968.336V221.206H938.596V233.425H966.268V242.712H938.596V257.713H969.388V267H927.467ZM974.466 249.066L985.294 248.013C985.945 251.648 987.261 254.317 989.241 256.021C991.247 257.726 993.941 258.578 997.325 258.578C1000.91 258.578 1003.6 257.826 1005.41 256.322C1007.24 254.793 1008.15 253.014 1008.15 250.983C1008.15 249.68 1007.76 248.577 1006.99 247.675C1006.24 246.747 1004.91 245.945 1003 245.269C1001.7 244.817 998.729 244.015 994.092 242.862C988.126 241.383 983.94 239.566 981.534 237.411C978.15 234.378 976.458 230.681 976.458 226.319C976.458 223.512 977.248 220.893 978.827 218.461C980.431 216.005 982.724 214.138 985.707 212.859C988.715 211.581 992.337 210.942 996.573 210.942C1003.49 210.942 1008.69 212.458 1012.18 215.491C1015.69 218.524 1017.53 222.572 1017.7 227.635L1006.57 228.124C1006.1 225.292 1005.07 223.261 1003.49 222.033C1001.94 220.78 999.593 220.153 996.46 220.153C993.227 220.153 990.695 220.818 988.865 222.146C987.687 222.998 987.098 224.139 987.098 225.567C987.098 226.871 987.65 227.986 988.753 228.914C990.156 230.092 993.565 231.32 998.979 232.598C1004.39 233.876 1008.39 235.205 1010.97 236.583C1013.58 237.937 1015.61 239.804 1017.06 242.186C1018.54 244.542 1019.28 247.462 1019.28 250.946C1019.28 254.104 1018.4 257.062 1016.65 259.819C1014.9 262.576 1012.41 264.631 1009.21 265.985C1006 267.313 1002 267.978 997.212 267.978C990.244 267.978 984.893 266.373 981.158 263.165C977.423 259.932 975.192 255.232 974.466 249.066Z" fill="black"/>
<defs>
<radialGradient id="paint0_angular" cx="0" cy="0" r="1" gradientUnits="userSpaceOnUse" gradientTransform="translate(572.61 212.931) rotate(90) scale(196.767 546.09)">
<stop offset="0.117279" stop-color="#D70000"/>
<stop offset="0.897467" stop-color="white" stop-opacity="0"/>
</radialGradient>
</defs>
</svg>
